<svg width="48" height="48" viewBox="0 0 48 48" fill="none" xmlns="http://www.w3.org/2000/svg">
<path d="M32.209 3.13892C36.049 5.99092 41.416 13.8539 41.956 25.9969C42.012 27.2539 41.4 28.4449 40.258 28.9749C39.443 29.3529 38.341 29.7829 36.953 30.1489C36.7079 30.211 36.4941 30.3608 36.3522 30.57C36.2102 30.7792 36.15 31.0333 36.183 31.2839L37.409 39.8619C37.749 42.2449 36.816 44.3799 34.494 45.0189C32.324 45.6169 30 44.1749 30 41.9229V4.50592C30 3.22192 31.178 2.37392 32.209 3.13892Z" stroke="white" stroke-width="3" stroke-linecap="round" stroke-linejoin="round"/>
<path d="M21.946 5.358C22.406 8.076 23.05 12.825 22.998 17.896C22.971 20.513 21.223 22.858 18.475 23.474C17.908 23.601 17.302 23.716 16.67 23.805L18.514 39.785C18.794 42.217 17.288 44.602 14.863 44.93C14.5771 44.972 14.2888 44.9954 14 45C13.7114 44.9953 13.4235 44.972 13.138 44.93C10.713 44.602 9.20597 42.217 9.48697 39.785L11.331 23.805C10.7251 23.7191 10.123 23.609 9.52597 23.475C6.77797 22.858 5.02997 20.512 5.00297 17.895C4.95097 12.825 5.59297 8.077 6.05297 5.359C6.28797 3.974 7.49997 3 8.90397 3H19.095C20.5 3 21.712 3.973 21.946 5.358Z" stroke="white" stroke-width="3" stroke-linecap="round" stroke-linejoin="round"/>
<path d="M11.5 3L11 14" stroke="white" stroke-width="3" stroke-linecap="round" stroke-linejoin="round"/>
<path d="M16.5 3L17 14" stroke="white" stroke-width="3" stroke-linecap="round" stroke-linejoin="round"/>
</svg>
