<svg width="50" height="50" viewBox="0 0 50 50" fill="none" xmlns="http://www.w3.org/2000/svg">
<path d="M26.8147 13.179C29.3145 13.598 31.5853 14.7786 33.3981 16.5877C35.2108 18.3968 36.3844 20.663 36.8137 23.1576M27.1964 5C31.6425 5.7522 35.6975 7.85646 38.9224 11.0652C42.1472 14.2835 44.2462 18.3302 45 22.7672M41.527 40.4201C41.527 40.4201 39.1131 42.791 38.5216 43.4861C37.5579 44.5144 36.4225 45 34.9341 45C34.791 45 34.6384 45 34.4952 44.9905C31.6616 44.8096 29.0282 43.7051 27.0532 42.7624C21.653 40.1535 16.9111 36.4496 12.9707 31.7555C9.71717 27.8422 7.54182 24.224 6.10112 20.3392C5.2138 17.9683 4.88941 16.1212 5.03252 14.3787C5.12793 13.2647 5.55728 12.3411 6.34919 11.5508L9.60268 8.30397C10.0702 7.86598 10.5663 7.62794 11.0529 7.62794C11.654 7.62794 12.1406 7.98976 12.4459 8.29445C12.4554 8.30397 12.465 8.31349 12.4745 8.32301C13.0565 8.86574 13.6099 9.42751 14.1919 10.0274C14.4877 10.3321 14.793 10.6367 15.0983 10.951L17.703 13.5503C18.7144 14.5596 18.7144 15.4927 17.703 16.502C17.4263 16.7781 17.1592 17.0543 16.8825 17.3209C16.081 18.1397 16.7106 17.5114 15.8806 18.2541C15.8615 18.2731 15.8424 18.2827 15.8328 18.3017C15.0123 19.1206 15.165 19.9204 15.3367 20.4631C15.3463 20.4917 15.3558 20.5202 15.3653 20.5488C16.0428 22.1865 16.9969 23.729 18.4471 25.5666L18.4566 25.5762C21.09 28.8135 23.8664 31.3367 26.9291 33.2696C27.3203 33.5171 27.721 33.7171 28.1026 33.9075C28.4461 34.0789 28.7705 34.2408 29.0472 34.4122C29.0853 34.4312 29.1235 34.4598 29.1617 34.4788C29.4861 34.6407 29.7914 34.7168 30.1062 34.7168C30.8981 34.7168 31.3943 34.2217 31.5565 34.0599L33.4266 32.1935C33.751 31.8698 34.2663 31.4794 34.8673 31.4794C35.4589 31.4794 35.9455 31.8507 36.2412 32.1745C36.2508 32.184 36.2508 32.184 36.2603 32.1935L41.5174 37.4399C42.5002 38.4111 41.527 40.4201 41.527 40.4201Z" stroke="white" stroke-width="2" stroke-linecap="round" stroke-linejoin="round"/>
</svg>
